# xmcd
#
# Track frame offsets:
# 151
# 23330
# 45318
# 66090
# 97635
# 124807
# 152059
# 181708
# 199266
#
# Disc length: 2989 seconds
#
#
# Revision: 0
# Processed by: cddbd v1.5.1PL0 Copyright (c) Steve Scherf et al.
# Submitted via: FreeRIP 2.35 
#
DISCID=600bab09
DTITLE=ETTORE MARTIN - SOUL STREETS
DYEAR=1999
DGENRE=Blues
TTITLE0=ROXY
TTITLE1=MANK'S
TTITLE2=SPANISH WALTZ
TTITLE3=CARIBE!
TTITLE4=RED SOUL
TTITLE5=HERE
TTITLE6=JUST A LITTLE
TTITLE7=DUKESPHERE
TTITLE8=HANK'S DILEMMA
EXTD=
EXTT0=
EXTT1=
EXTT2=
EXTT3=
EXTT4=
EXTT5=
EXTT6=
EXTT7=
EXTT8=
PLAYORDER=
